<svg xmlns="http://www.w3.org/2000/svg" viewBox="0 0 278.14 278.14">
  <title>info2@1</title>
  <g id="Calque_2" data-name="Calque 2">
    <g id="Calque_1-2" data-name="Calque 1">
      <g>
        <path d="M139.07,278.14C62.39,278.14,0,215.75,0,139.07S62.39,0,139.07,0,278.14,62.39,278.14,139.07,215.75,278.14,139.07,278.14Zm0-242.14A103.07,103.07,0,1,0,242.14,139.07,103.19,103.19,0,0,0,139.07,36Z" style="fill: #223b7b"/>
        <path d="M148.39,93.6a12.4,12.4,0,0,1-9.23,3.85A13.16,13.16,0,0,1,126,84.27a12.39,12.39,0,0,1,3.86-9.22,12.88,12.88,0,0,1,9.32-3.77,12.87,12.87,0,0,1,13,13A12.88,12.88,0,0,1,148.39,93.6ZM128.05,206.86V110.64h22v96.22Z" style="fill: #223b7b"/>
      </g>
    </g>
  </g>
</svg>
